<svg width="16.000000" height="16.000000" viewBox="0 0 16 16" fill="none" xmlns="http://www.w3.org/2000/svg" xmlns:xlink="http://www.w3.org/1999/xlink">
	<desc>
			Created with Pixso.
	</desc>
	<defs>
		<clipPath id="clip2_195">
			<rect id="Frame" rx="0.000000" width="15.000000" height="15.000000" transform="translate(0.500000 0.500000)" fill="white" fill-opacity="0"/>
		</clipPath>
	</defs>
	<rect id="Frame" rx="0.000000" width="15.000000" height="15.000000" transform="translate(0.500000 0.500000)" fill="#FFFFFF" fill-opacity="0"/>
	<g clip-path="url(#clip2_195)">
		<path id="Vector" d="M0.5 9.89C0.63 9.89 0.75 9.95 0.85 10.04C0.94 10.14 1 10.26 1 10.39L1 12.89C1 13.16 1.1 13.41 1.29 13.6C1.48 13.79 1.73 13.89 2 13.89L14 13.89C14.26 13.89 14.51 13.79 14.7 13.6C14.89 13.41 15 13.16 15 12.89L15 10.39C15 10.26 15.05 10.14 15.14 10.04C15.24 9.95 15.36 9.89 15.5 9.89C15.63 9.89 15.75 9.95 15.85 10.04C15.94 10.14 16 10.26 16 10.39L16 12.89C16 13.43 15.78 13.93 15.41 14.31C15.03 14.68 14.53 14.89 14 14.89L2 14.89C1.46 14.89 0.96 14.68 0.58 14.31C0.21 13.93 0 13.43 0 12.89L0 10.39C0 10.26 0.05 10.14 0.14 10.04C0.24 9.95 0.36 9.89 0.5 9.89Z" fill="#737373" fill-opacity="1.000000" fill-rule="nonzero"/>
		<path id="Vector" d="M7.64 11.85C7.69 11.9 7.74 11.93 7.8 11.96C7.86 11.98 7.93 12 8 12C8.06 12 8.13 11.98 8.19 11.96C8.25 11.93 8.3 11.9 8.35 11.85L11.35 8.85C11.44 8.76 11.5 8.63 11.5 8.5C11.5 8.36 11.44 8.23 11.35 8.14C11.25 8.05 11.13 7.99 11 7.99C10.86 7.99 10.73 8.05 10.64 8.14L8.5 10.29L8.5 1.5C8.5 1.36 8.44 1.24 8.35 1.14C8.25 1.05 8.13 1 8 1C7.86 1 7.74 1.05 7.64 1.14C7.55 1.24 7.5 1.36 7.5 1.5L7.5 10.29L5.35 8.14C5.25 8.05 5.13 7.99 5 7.99C4.86 7.99 4.73 8.05 4.64 8.14C4.55 8.23 4.49 8.36 4.49 8.5C4.49 8.63 4.55 8.76 4.64 8.85L7.64 11.85Z" fill="#737373" fill-opacity="1.000000" fill-rule="nonzero"/>
	</g>
</svg>
