<svg width="19.000000" height="19.000000" viewBox="0 0 19 19" fill="none" xmlns="http://www.w3.org/2000/svg" xmlns:xlink="http://www.w3.org/1999/xlink">
	<desc>
			Created with Pixso.
	</desc>
	<defs/>
	<path id="Vector" d="M0 0.63C0 0.46 0.06 0.3 0.18 0.18C0.3 0.06 0.46 0 0.63 0L2.53 0C2.67 0 2.81 0.04 2.92 0.13C3.03 0.22 3.11 0.34 3.14 0.47L3.66 2.53L18.36 2.53C18.45 2.53 18.55 2.55 18.63 2.59C18.72 2.63 18.79 2.69 18.85 2.76C18.91 2.83 18.95 2.91 18.97 3C19 3.09 19 3.19 18.98 3.28L17.08 13.41C17.06 13.56 16.98 13.69 16.87 13.78C16.75 13.88 16.61 13.93 16.46 13.93L5.06 13.93C4.91 13.93 4.77 13.88 4.66 13.78C4.54 13.69 4.47 13.56 4.44 13.41L2.54 3.3L2.03 1.26L0.63 1.26C0.46 1.26 0.3 1.19 0.18 1.08C0.06 0.96 0 0.8 0 0.63ZM3.92 3.79L5.59 12.66L15.94 12.66L17.6 3.79L3.92 3.79ZM6.33 13.93C5.66 13.93 5.01 14.2 4.54 14.67C4.06 15.15 3.79 15.79 3.79 16.46C3.79 17.13 4.06 17.78 4.54 18.25C5.01 18.73 5.66 19 6.33 19C7 19 7.64 18.73 8.12 18.25C8.59 17.78 8.86 17.13 8.86 16.46C8.86 15.79 8.59 15.15 8.12 14.67C7.64 14.2 7 13.93 6.33 13.93ZM15.2 13.93C14.52 13.93 13.88 14.2 13.4 14.67C12.93 15.15 12.66 15.79 12.66 16.46C12.66 17.13 12.93 17.78 13.4 18.25C13.88 18.73 14.52 19 15.2 19C15.87 19 16.51 18.73 16.99 18.25C17.46 17.78 17.73 17.13 17.73 16.46C17.73 15.79 17.46 15.15 16.99 14.67C16.51 14.2 15.87 13.93 15.2 13.93ZM6.33 15.2C6.66 15.2 6.99 15.33 7.22 15.57C7.46 15.8 7.6 16.13 7.6 16.46C7.6 16.8 7.46 17.12 7.22 17.36C6.99 17.6 6.66 17.73 6.33 17.73C5.99 17.73 5.67 17.6 5.43 17.36C5.2 17.12 5.06 16.8 5.06 16.46C5.06 16.13 5.2 15.8 5.43 15.57C5.67 15.33 5.99 15.2 6.33 15.2ZM15.2 15.2C15.53 15.2 15.85 15.33 16.09 15.57C16.33 15.8 16.46 16.13 16.46 16.46C16.46 16.8 16.33 17.12 16.09 17.36C15.85 17.6 15.53 17.73 15.2 17.73C14.86 17.73 14.54 17.6 14.3 17.36C14.06 17.12 13.93 16.8 13.93 16.46C13.93 16.13 14.06 15.8 14.3 15.57C14.54 15.33 14.86 15.2 15.2 15.2Z" fill="#252B42" fill-opacity="1.000000" fill-rule="nonzero"/>
</svg>
