<svg width="17.502930" height="15.625000" viewBox="0 0 17.5029 15.625" fill="none" xmlns="http://www.w3.org/2000/svg" xmlns:xlink="http://www.w3.org/1999/xlink">
	<desc>
			Created with Pixso.
	</desc>
	<defs/>
	<path id="Vector" d="M12.78 1.25C13.23 1.24 13.68 1.33 14.1 1.51C14.52 1.69 14.9 1.95 15.22 2.27C15.88 2.94 16.25 3.83 16.25 4.77C16.25 5.71 15.88 6.6 15.22 7.27L8.75 13.83L2.27 7.27C1.62 6.6 1.25 5.71 1.25 4.77C1.25 3.83 1.62 2.94 2.27 2.27C2.59 1.95 2.97 1.69 3.39 1.51C3.81 1.34 4.26 1.24 4.72 1.24C5.17 1.24 5.62 1.34 6.04 1.51C6.46 1.69 6.84 1.95 7.16 2.27L8.75 3.89L10.33 2.28C10.65 1.95 11.03 1.69 11.45 1.51C11.87 1.34 12.32 1.24 12.78 1.25ZM12.78 0C12.16 -0.01 11.54 0.12 10.97 0.36C10.4 0.6 9.88 0.95 9.44 1.39L8.75 2.1L8.05 1.39C7.62 0.95 7.1 0.6 6.53 0.36C5.95 0.12 5.34 0 4.72 0C4.09 0 3.48 0.12 2.91 0.36C2.33 0.6 1.81 0.95 1.38 1.39C0.49 2.3 0 3.51 0 4.78C0 6.04 0.49 7.26 1.38 8.16L8.75 15.62L16.12 8.16C17 7.26 17.5 6.04 17.5 4.78C17.5 3.51 17 2.3 16.12 1.39C15.68 0.95 15.16 0.6 14.59 0.36C14.01 0.12 13.4 0 12.78 0Z" fill="#BDBDBD" fill-opacity="1.000000" fill-rule="nonzero"/>
	<path id="Vector" d="M8.31 1.65L8.05 1.39C7.62 0.95 7.1 0.6 6.53 0.36C5.95 0.12 5.34 0 4.72 0C4.09 0 3.48 0.12 2.91 0.36C2.33 0.6 1.81 0.95 1.38 1.39C0.49 2.3 0 3.51 0 4.78C0 6.04 0.49 7.26 1.38 8.16L8.31 15.18L8.75 15.62L9.19 15.18L16.12 8.16C17 7.26 17.5 6.04 17.5 4.78C17.5 3.51 17 2.3 16.12 1.39C15.68 0.95 15.16 0.6 14.59 0.36C14.01 0.12 13.4 0 12.78 0C12.16 -0.01 11.54 0.12 10.97 0.36C10.4 0.6 9.88 0.95 9.44 1.39L9.19 1.65L8.75 2.1L8.31 1.65ZM8.75 14.73L15.67 7.72Q15.95 7.43 16.17 7.1Q16.4 6.76 16.56 6.37Q16.72 5.98 16.79 5.59Q16.87 5.19 16.87 4.78Q16.87 4.36 16.79 3.97Q16.72 3.57 16.56 3.19Q16.4 2.8 16.18 2.47Q15.96 2.13 15.67 1.83Q15.45 1.61 15.21 1.43Q15.45 1.61 15.67 1.83Q15.95 2.12 16.17 2.45Q16.4 2.79 16.56 3.18Q16.71 3.56 16.79 3.96Q16.87 4.36 16.87 4.77Q16.87 5.18 16.79 5.58Q16.71 5.98 16.56 6.36Q16.4 6.74 16.18 7.08Q15.96 7.41 15.67 7.71L8.75 14.72L1.83 7.71Q1.53 7.41 1.31 7.07Q1.09 6.73 0.93 6.36Q0.78 5.98 0.7 5.58Q0.62 5.18 0.62 4.77Q0.62 4.36 0.7 3.96Q0.78 3.56 0.93 3.18Q1.09 2.8 1.31 2.46Q1.54 2.13 1.83 1.83Q2.02 1.63 2.24 1.47Q2.02 1.63 1.82 1.83Q1.54 2.13 1.31 2.46Q1.09 2.8 0.93 3.19Q0.78 3.57 0.7 3.97Q0.62 4.36 0.62 4.78Q0.62 5.19 0.7 5.59Q0.78 5.98 0.93 6.37Q1.09 6.75 1.31 7.09Q1.53 7.43 1.82 7.72L8.75 14.73ZM7.25 1.51Q7.43 1.66 7.61 1.83L8.75 3L9.88 1.85Q10.15 1.57 10.45 1.36Q10.8 1.11 11.2 0.94Q11.58 0.78 11.97 0.7Q12.1 0.67 12.24 0.66Q12.1 0.67 11.97 0.7Q11.58 0.78 11.21 0.93Q10.83 1.09 10.5 1.32Q10.17 1.54 9.89 1.83L8.75 2.98L7.61 1.83Q7.44 1.66 7.25 1.51ZM9.18 3.45L8.75 3.89L8.31 3.45L7.16 2.27C6.84 1.95 6.46 1.69 6.04 1.51C5.62 1.34 5.17 1.24 4.72 1.24C4.26 1.24 3.81 1.34 3.39 1.51C2.97 1.69 2.59 1.95 2.27 2.27C1.62 2.94 1.25 3.83 1.25 4.77C1.25 5.71 1.62 6.6 2.27 7.27L8.31 13.38L8.75 13.83L9.19 13.38L15.22 7.27C15.88 6.6 16.25 5.71 16.25 4.77C16.25 3.83 15.88 2.94 15.22 2.27C14.9 1.95 14.52 1.69 14.1 1.51C13.68 1.33 13.23 1.24 12.78 1.25C12.32 1.24 11.87 1.34 11.45 1.51C11.03 1.69 10.65 1.95 10.33 2.28L9.18 3.45Z" fill="#252B42" fill-opacity="1.000000" fill-rule="evenodd"/>
</svg>
